<mxfile host="app.diagrams.net" agent="Mozilla/5.0 (Windows NT 10.0; Win64; x64) AppleWebKit/537.36 (KHTML, like Gecko) Chrome/134.0.0.0 Safari/537.36 OPR/119.0.0.0" version="27.1.3">
  <diagram name="PÃ¡gina-1" id="I6RUE2bayDhvUV1fZr2l">
    <mxGraphModel dx="1086" dy="687" grid="1" gridSize="10" guides="1" tooltips="1" connect="1" arrows="1" fold="1" page="1" pageScale="1" pageWidth="827" pageHeight="1169" math="0" shadow="0">
      <root>
        <mxCell id="0" />
        <mxCell id="1" parent="0" />
        <mxCell id="NXqYaJhiF7EXS642CR9W-13" style="edgeStyle=orthogonalEdgeStyle;rounded=0;orthogonalLoop=1;jettySize=auto;html=1;exitX=0.5;exitY=0;exitDx=0;exitDy=0;entryX=0.5;entryY=1;entryDx=0;entryDy=0;" edge="1" parent="1" source="NXqYaJhiF7EXS642CR9W-2" target="NXqYaJhiF7EXS642CR9W-5">
          <mxGeometry relative="1" as="geometry" />
        </mxCell>
        <mxCell id="NXqYaJhiF7EXS642CR9W-36" style="edgeStyle=orthogonalEdgeStyle;rounded=0;orthogonalLoop=1;jettySize=auto;html=1;exitX=0.5;exitY=1;exitDx=0;exitDy=0;entryX=1;entryY=0.5;entryDx=0;entryDy=0;" edge="1" parent="1" source="NXqYaJhiF7EXS642CR9W-2" target="NXqYaJhiF7EXS642CR9W-35">
          <mxGeometry relative="1" as="geometry" />
        </mxCell>
        <mxCell id="NXqYaJhiF7EXS642CR9W-2" value="Cliente" style="whiteSpace=wrap;html=1;align=center;" vertex="1" parent="1">
          <mxGeometry x="180" y="180" width="100" height="40" as="geometry" />
        </mxCell>
        <mxCell id="NXqYaJhiF7EXS642CR9W-16" style="edgeStyle=orthogonalEdgeStyle;rounded=0;orthogonalLoop=1;jettySize=auto;html=1;exitX=0.5;exitY=1;exitDx=0;exitDy=0;entryX=0.5;entryY=0;entryDx=0;entryDy=0;" edge="1" parent="1" source="NXqYaJhiF7EXS642CR9W-3" target="NXqYaJhiF7EXS642CR9W-4">
          <mxGeometry relative="1" as="geometry" />
        </mxCell>
        <mxCell id="NXqYaJhiF7EXS642CR9W-3" value="Pedido" style="shape=ext;margin=3;double=1;whiteSpace=wrap;html=1;align=center;" vertex="1" parent="1">
          <mxGeometry x="360" y="70" width="100" height="40" as="geometry" />
        </mxCell>
        <mxCell id="NXqYaJhiF7EXS642CR9W-17" style="edgeStyle=orthogonalEdgeStyle;rounded=0;orthogonalLoop=1;jettySize=auto;html=1;exitX=0.5;exitY=1;exitDx=0;exitDy=0;entryX=0.5;entryY=0;entryDx=0;entryDy=0;" edge="1" parent="1" source="NXqYaJhiF7EXS642CR9W-4" target="NXqYaJhiF7EXS642CR9W-8">
          <mxGeometry relative="1" as="geometry" />
        </mxCell>
        <mxCell id="NXqYaJhiF7EXS642CR9W-4" value="Contiene" style="shape=associativeEntity;whiteSpace=wrap;html=1;align=center;" vertex="1" parent="1">
          <mxGeometry x="340" y="170" width="140" height="60" as="geometry" />
        </mxCell>
        <mxCell id="NXqYaJhiF7EXS642CR9W-14" style="edgeStyle=orthogonalEdgeStyle;rounded=0;orthogonalLoop=1;jettySize=auto;html=1;exitX=1;exitY=0.5;exitDx=0;exitDy=0;entryX=0;entryY=0.5;entryDx=0;entryDy=0;" edge="1" parent="1" source="NXqYaJhiF7EXS642CR9W-5" target="NXqYaJhiF7EXS642CR9W-3">
          <mxGeometry relative="1" as="geometry" />
        </mxCell>
        <mxCell id="NXqYaJhiF7EXS642CR9W-5" value="Realiza" style="shape=rhombus;perimeter=rhombusPerimeter;whiteSpace=wrap;html=1;align=center;" vertex="1" parent="1">
          <mxGeometry x="170" y="60" width="120" height="60" as="geometry" />
        </mxCell>
        <mxCell id="NXqYaJhiF7EXS642CR9W-19" style="edgeStyle=orthogonalEdgeStyle;rounded=0;orthogonalLoop=1;jettySize=auto;html=1;exitX=0.5;exitY=1;exitDx=0;exitDy=0;entryX=0.5;entryY=0;entryDx=0;entryDy=0;" edge="1" parent="1" source="NXqYaJhiF7EXS642CR9W-6" target="NXqYaJhiF7EXS642CR9W-9">
          <mxGeometry relative="1" as="geometry" />
        </mxCell>
        <mxCell id="NXqYaJhiF7EXS642CR9W-6" value="Pertenece" style="shape=rhombus;perimeter=rhombusPerimeter;whiteSpace=wrap;html=1;align=center;" vertex="1" parent="1">
          <mxGeometry x="350" y="380" width="120" height="60" as="geometry" />
        </mxCell>
        <mxCell id="NXqYaJhiF7EXS642CR9W-18" style="edgeStyle=orthogonalEdgeStyle;rounded=0;orthogonalLoop=1;jettySize=auto;html=1;exitX=0.5;exitY=1;exitDx=0;exitDy=0;entryX=0.5;entryY=0;entryDx=0;entryDy=0;" edge="1" parent="1" source="NXqYaJhiF7EXS642CR9W-8" target="NXqYaJhiF7EXS642CR9W-6">
          <mxGeometry relative="1" as="geometry" />
        </mxCell>
        <mxCell id="NXqYaJhiF7EXS642CR9W-20" style="edgeStyle=orthogonalEdgeStyle;rounded=0;orthogonalLoop=1;jettySize=auto;html=1;exitX=1;exitY=0.5;exitDx=0;exitDy=0;entryX=0;entryY=0.5;entryDx=0;entryDy=0;" edge="1" parent="1" source="NXqYaJhiF7EXS642CR9W-8" target="NXqYaJhiF7EXS642CR9W-11">
          <mxGeometry relative="1" as="geometry" />
        </mxCell>
        <mxCell id="NXqYaJhiF7EXS642CR9W-8" value="Libro" style="shape=ext;margin=3;double=1;whiteSpace=wrap;html=1;align=center;" vertex="1" parent="1">
          <mxGeometry x="360" y="290" width="100" height="40" as="geometry" />
        </mxCell>
        <mxCell id="NXqYaJhiF7EXS642CR9W-9" value="Editorial" style="whiteSpace=wrap;html=1;align=center;" vertex="1" parent="1">
          <mxGeometry x="360" y="480" width="100" height="40" as="geometry" />
        </mxCell>
        <mxCell id="NXqYaJhiF7EXS642CR9W-21" style="edgeStyle=orthogonalEdgeStyle;rounded=0;orthogonalLoop=1;jettySize=auto;html=1;exitX=1;exitY=0.5;exitDx=0;exitDy=0;entryX=0;entryY=0.5;entryDx=0;entryDy=0;" edge="1" parent="1" source="NXqYaJhiF7EXS642CR9W-11" target="NXqYaJhiF7EXS642CR9W-12">
          <mxGeometry relative="1" as="geometry" />
        </mxCell>
        <mxCell id="NXqYaJhiF7EXS642CR9W-11" value="Existe" style="shape=rhombus;perimeter=rhombusPerimeter;whiteSpace=wrap;html=1;align=center;" vertex="1" parent="1">
          <mxGeometry x="530" y="280" width="120" height="60" as="geometry" />
        </mxCell>
        <mxCell id="NXqYaJhiF7EXS642CR9W-12" value="Inventario" style="shape=ext;margin=3;double=1;whiteSpace=wrap;html=1;align=center;" vertex="1" parent="1">
          <mxGeometry x="720" y="290" width="100" height="40" as="geometry" />
        </mxCell>
        <mxCell id="NXqYaJhiF7EXS642CR9W-26" value="1,1" style="text;strokeColor=none;fillColor=none;spacingLeft=4;spacingRight=4;overflow=hidden;rotatable=0;points=[[0,0.5],[1,0.5]];portConstraint=eastwest;fontSize=12;whiteSpace=wrap;html=1;" vertex="1" parent="1">
          <mxGeometry x="230" y="150" width="40" height="30" as="geometry" />
        </mxCell>
        <mxCell id="NXqYaJhiF7EXS642CR9W-27" value="0,1" style="text;strokeColor=none;fillColor=none;spacingLeft=4;spacingRight=4;overflow=hidden;rotatable=0;points=[[0,0.5],[1,0.5]];portConstraint=eastwest;fontSize=12;whiteSpace=wrap;html=1;" vertex="1" parent="1">
          <mxGeometry x="320" y="60" width="40" height="30" as="geometry" />
        </mxCell>
        <mxCell id="NXqYaJhiF7EXS642CR9W-28" value="1,n" style="text;strokeColor=none;fillColor=none;spacingLeft=4;spacingRight=4;overflow=hidden;rotatable=0;points=[[0,0.5],[1,0.5]];portConstraint=eastwest;fontSize=12;whiteSpace=wrap;html=1;" vertex="1" parent="1">
          <mxGeometry x="414" y="140" width="40" height="30" as="geometry" />
        </mxCell>
        <mxCell id="NXqYaJhiF7EXS642CR9W-29" value="1,n" style="text;strokeColor=none;fillColor=none;spacingLeft=4;spacingRight=4;overflow=hidden;rotatable=0;points=[[0,0.5],[1,0.5]];portConstraint=eastwest;fontSize=12;whiteSpace=wrap;html=1;" vertex="1" parent="1">
          <mxGeometry x="410" y="260" width="40" height="30" as="geometry" />
        </mxCell>
        <mxCell id="NXqYaJhiF7EXS642CR9W-30" value="1,n" style="text;strokeColor=none;fillColor=none;spacingLeft=4;spacingRight=4;overflow=hidden;rotatable=0;points=[[0,0.5],[1,0.5]];portConstraint=eastwest;fontSize=12;whiteSpace=wrap;html=1;" vertex="1" parent="1">
          <mxGeometry x="410" y="330" width="40" height="30" as="geometry" />
        </mxCell>
        <mxCell id="NXqYaJhiF7EXS642CR9W-31" value="1,1" style="text;strokeColor=none;fillColor=none;spacingLeft=4;spacingRight=4;overflow=hidden;rotatable=0;points=[[0,0.5],[1,0.5]];portConstraint=eastwest;fontSize=12;whiteSpace=wrap;html=1;" vertex="1" parent="1">
          <mxGeometry x="414" y="440" width="40" height="30" as="geometry" />
        </mxCell>
        <mxCell id="NXqYaJhiF7EXS642CR9W-32" value="1,n" style="text;strokeColor=none;fillColor=none;spacingLeft=4;spacingRight=4;overflow=hidden;rotatable=0;points=[[0,0.5],[1,0.5]];portConstraint=eastwest;fontSize=12;whiteSpace=wrap;html=1;" vertex="1" parent="1">
          <mxGeometry x="460" y="280" width="40" height="30" as="geometry" />
        </mxCell>
        <mxCell id="NXqYaJhiF7EXS642CR9W-33" value="0,1" style="text;strokeColor=none;fillColor=none;spacingLeft=4;spacingRight=4;overflow=hidden;rotatable=0;points=[[0,0.5],[1,0.5]];portConstraint=eastwest;fontSize=12;whiteSpace=wrap;html=1;" vertex="1" parent="1">
          <mxGeometry x="680" y="280" width="40" height="30" as="geometry" />
        </mxCell>
        <mxCell id="NXqYaJhiF7EXS642CR9W-34" value="1,n" style="text;strokeColor=none;fillColor=none;spacingLeft=4;spacingRight=4;overflow=hidden;rotatable=0;points=[[0,0.5],[1,0.5]];portConstraint=eastwest;fontSize=12;whiteSpace=wrap;html=1;" vertex="1" parent="1">
          <mxGeometry x="410" y="230" width="40" height="30" as="geometry" />
        </mxCell>
        <mxCell id="NXqYaJhiF7EXS642CR9W-35" value="Nombre" style="ellipse;whiteSpace=wrap;html=1;align=center;" vertex="1" parent="1">
          <mxGeometry x="80" y="240" width="100" height="40" as="geometry" />
        </mxCell>
      </root>
    </mxGraphModel>
  </diagram>
</mxfile>
